{"title":"Body Double 1984 DVD9rip English Klam","uid":10629077,"size":2071406518,"categoryP":"video","categoryS":"movies","magnet":"?xt=urn:btih:99dd97b38811ade07d18ffdec01cc9c124d1f43b&amp;dn=Body+Double+1984+DVD9rip+English+Klam&amp;tr=udp%3A%2F%2Ftracker.openbittorrent.com%3A80&amp;tr=udp%3A%2F%2Fopen.demonii.com%3A1337&amp;tr=udp%3A%2F%2Ftracker.coppersurfer.tk%3A6969&amp;tr=udp%3A%2F%2Fexodus.desync.com%3A6969","seeders":2,"leechers":3,"uploader":"Klambake","files":5,"time":1406288230,"description":" &lt;a href=&quot;http://i.imgur.com/LaPP8WQ.jpg&quot; rel=&quot;nofollow&quot; target=&quot;_NEW&quot;&gt;http://i.imgur.com/LaPP8WQ.jpg&lt;/a&gt;\n\nWith: Craig Wasson, Melanie Griffith and Gregg Henry\n\nJake Scully verliest vrijwel gelijktijdig zijn werk als acteur, zijn vriendin en het dak boven zijn hoofd. Het toeval wil echter dat een vriend een paar maanden naar het buitenland moet, waardoor Jake tijdelijk in zijn luxe appartement kan doorbrengen. Via een telescoop kan hij elke avond een striptease zien van de overbuurvrouw Gloria Revelle. Op een dag is hij getuige van een gevecht op leven en dood tussen Gloria en een inbreker.\n\nA young actor's obsession with spying on a beautiful woman who lives nearby leads to a baffling series of events with drastic consequences.\n &lt;a href=&quot;\nhttp://www.imdb.com/title/tt0086984&quot; rel=&quot;nofollow&quot; target=&quot;_NEW&quot;&gt;\nhttp://www.imdb.com/title/tt0086984&lt;/a&gt;\t\n\n--------------------- Dutch Friends 4ever ---------------------\n---------------------------------------------------------------\n- Bezoek ook eens mijn vrienden op: &lt;a href=&quot; http://www.Film-Test.nl&quot; rel=&quot;nofollow&quot; target=&quot;_NEW&quot;&gt; http://www.Film-Test.nl&lt;/a&gt; --\n----- voor mijn Nederlandse Sync. ondertitels ---- en meer ----\n------- http://www.Film-Test.nl ---- Over Films en meer -------\n---------------------------------------------------------------\n &lt;a href=&quot;\nhttp://i.imgur.com/6nrmmxX.jpg&quot; rel=&quot;nofollow&quot; target=&quot;_NEW&quot;&gt;\nhttp://i.imgur.com/6nrmmxX.jpg&lt;/a&gt; &lt;a href=&quot;\nhttp://i.imgur.com/awrEhNI.jpg&quot; rel=&quot;nofollow&quot; target=&quot;_NEW&quot;&gt;\nhttp://i.imgur.com/awrEhNI.jpg&lt;/a&gt; &lt;a href=&quot;\nhttp://i.imgur.com/TJ0eFF5.jpg&quot; rel=&quot;nofollow&quot; target=&quot;_NEW&quot;&gt;\nhttp://i.imgur.com/TJ0eFF5.jpg&lt;/a&gt;\n\nGeneral:\n\nComplete name                            : Body DoubleBody Double.avi\nFormat                                   : AVI\nFormat/Info                              : Audio Video Interleave\nFile size                                : 1.93 GiB\nDuration                                 : 1h 54mn\nOverall bit rate                         : 2 419 Kbps\n\nVideo:\n\nFormat                                   : MPEG-4 Visual\nFormat profile                           : Simple@L3\nFormat settings, BVOP                    : No\nFormat settings, QPel                    : No\nFormat settings, GMC                     : No warppoints\nFormat settings, Matrix                  : Default (H.263)\nCodec ID                                 : XVID\nCodec ID/Hint                            : XviD\nDuration                                 : 1h 54mn\nSource duration                          : 1h 54mn\nBit rate                                 : 1 960 Kbps\nWidth                                    : 704 pixels\nHeight                                   : 396 pixels\nDisplay aspect ratio                     : 16:9\nFrame rate                               : 25.000 fps\nColor space                              : YUV\nChroma subsampling                       : 4:2:0\nBit depth                                : 8 bits\nScan type                                : Progressive\nCompression mode                         : Lossy\nBits/(Pixel*Frame)                       : 0.281\nStream size                              : 1.56 GiB (81%)\nWriting library                          : XviD 1.1.2 (UTC 2006-11-01)\n\nAudio:\n\nFormat                                   : AC-3\nFormat/Info                              : Audio Coding 3\nMode extension                           : CM (complete main)\nFormat settings, Endianness              : Big\nCodec ID                                 : 2000\nDuration                                 : 1h 54mn\nBit rate mode                            : Constant\nBit rate                                 : 448 Kbps\nChannel(s)                               : 6 channels\nChannel positions                        : Front: L C R, Side: L R, LFE\nSampling rate                            : 48.0 KHz\nBit depth                                : 16 bits\nCompression mode                         : Lossy\nStream size                              : 366 MiB (19%)\nAlignment                                : Aligned on interleaves\nInterleave, duration                     : 32 ms (0.80 video frame)\nInterleave, preload duration             : 576 ms\n\n\n\n","torrent":{"xt":"urn:btih:99dd97b38811ade07d18ffdec01cc9c124d1f43b","amp;dn":"Body+Double+1984+DVD9rip+English+Klam","amp;tr":["udp%3A%2F%2Ftracker.openbittorrent.com%3A80","udp%3A%2F%2Fopen.demonii.com%3A1337","udp%3A%2F%2Ftracker.coppersurfer.tk%3A6969","udp%3A%2F%2Fexodus.desync.com%3A6969"],"infoHash":"99dd97b38811ade07d18ffdec01cc9c124d1f43b","infoHashBuffer":{"type":"Buffer","data":[153,221,151,179,136,17,173,224,125,24,255,222,192,28,201,193,36,209,244,59]},"announce":[],"urlList":[]}}